<?xml version="1.0" encoding="UTF-8" standalone="no"?>
<!DOCTYPE svg PUBLIC "-//W3C//DTD SVG 1.1//EN"
 "http://www.w3.org/Graphics/SVG/1.1/DTD/svg11.dtd">
<!-- Generated by graphviz version 2.40.1 (20161225.0304)
 -->
<!-- Title: G Pages: 1 -->
<svg width="497pt" height="99pt"
 viewBox="0.00 0.00 497.00 99.00" xmlns="http://www.w3.org/2000/svg" xmlns:xlink="http://www.w3.org/1999/xlink">
<g id="graph0" class="graph" transform="scale(1 1) rotate(0) translate(4 95)">
<title>G</title>
<polygon fill="#ffffff" stroke="transparent" points="-4,4 -4,-95 493,-95 493,4 -4,4"/>
<g id="clust1" class="cluster">
<title>clusterusr_0_</title>
<polygon fill="none" stroke="#0000ff" points="8,-8 8,-83 106,-83 106,-8 8,-8"/>
<text text-anchor="middle" x="57" y="-67.8" font-family="Times,serif" font-size="14.00" fill="#000000">anonymous</text>
</g>
<g id="clust2" class="cluster">
<title>clusterusr_1_</title>
<polygon fill="none" stroke="#0000ff" points="114,-8 114,-83 212,-83 212,-8 114,-8"/>
<text text-anchor="middle" x="163" y="-67.8" font-family="Times,serif" font-size="14.00" fill="#000000">anonymous</text>
</g>
<g id="clust3" class="cluster">
<title>clusterusr_2_</title>
<polygon fill="none" stroke="#0000ff" points="220,-8 220,-83 307,-83 307,-8 220,-8"/>
<text text-anchor="middle" x="263.5" y="-67.8" font-family="Times,serif" font-size="14.00" fill="#000000">Alice_Zou</text>
</g>
<g id="clust4" class="cluster">
<title>clusterusr_3_</title>
<polygon fill="none" stroke="#0000ff" points="315,-8 315,-83 395,-83 395,-8 315,-8"/>
<text text-anchor="middle" x="355" y="-67.8" font-family="Times,serif" font-size="14.00" fill="#000000">Alice_ZZ</text>
</g>
<g id="clust5" class="cluster">
<title>clusterusr_4_</title>
<polygon fill="none" stroke="#0000ff" points="403,-8 403,-83 481,-83 481,-8 403,-8"/>
<text text-anchor="middle" x="442" y="-67.8" font-family="Times,serif" font-size="14.00" fill="#000000">Rabbit</text>
</g>
<!-- val0 -->
<g id="node1" class="node">
<title>val0</title>
<ellipse fill="#d3d3d3" stroke="#000000" cx="57" cy="-34" rx="30.5947" ry="18"/>
<text text-anchor="middle" x="57" y="-30.3" font-family="Times,serif" font-size="14.00" fill="#000000">val0</text>
</g>
<!-- val1 -->
<g id="node2" class="node">
<title>val1</title>
<ellipse fill="#d3d3d3" stroke="#000000" cx="163" cy="-34" rx="30.5947" ry="18"/>
<text text-anchor="middle" x="163" y="-30.3" font-family="Times,serif" font-size="14.00" fill="#000000">val1</text>
</g>
<!-- val2 -->
<g id="node3" class="node">
<title>val2</title>
<ellipse fill="#d3d3d3" stroke="#000000" cx="263" cy="-34" rx="30.5947" ry="18"/>
<text text-anchor="middle" x="263" y="-30.3" font-family="Times,serif" font-size="14.00" fill="#000000">val2</text>
</g>
<!-- val3 -->
<g id="node4" class="node">
<title>val3</title>
<ellipse fill="#d3d3d3" stroke="#000000" cx="355" cy="-34" rx="30.5947" ry="18"/>
<text text-anchor="middle" x="355" y="-30.3" font-family="Times,serif" font-size="14.00" fill="#000000">val3</text>
</g>
<!-- val4 -->
<g id="node5" class="node">
<title>val4</title>
<ellipse fill="#d3d3d3" stroke="#000000" cx="442" cy="-34" rx="30.5947" ry="18"/>
<text text-anchor="middle" x="442" y="-30.3" font-family="Times,serif" font-size="14.00" fill="#000000">val4</text>
</g>
</g>
</svg>
