<?xml version="1.0" encoding="UTF-8" standalone="no"?>
<!DOCTYPE svg PUBLIC "-//W3C//DTD SVG 1.1//EN"
 "http://www.w3.org/Graphics/SVG/1.1/DTD/svg11.dtd">
<!-- Generated by graphviz version 2.40.1 (20161225.0304)
 -->
<!-- Title: G Pages: 1 -->
<svg width="260pt" height="587pt"
 viewBox="0.00 0.00 260.00 587.00" xmlns="http://www.w3.org/2000/svg" xmlns:xlink="http://www.w3.org/1999/xlink">
<g id="graph0" class="graph" transform="scale(1 1) rotate(0) translate(4 583)">
<title>G</title>
<polygon fill="#ffffff" stroke="transparent" points="-4,4 -4,-583 256,-583 256,4 -4,4"/>
<g id="clust1" class="cluster">
<title>clusterusr_0_1_2_</title>
<polygon fill="none" stroke="#0000ff" points="65,-374 65,-571 230,-571 230,-374 65,-374"/>
<text text-anchor="middle" x="147.5" y="-555.8" font-family="Times,serif" font-size="14.00" fill="#000000">Wendy</text>
</g>
<g id="clust2" class="cluster">
<title>clustervar_1_</title>
<polygon fill="none" stroke="#000000" points="73,-465 73,-540 151,-540 151,-465 73,-465"/>
<text text-anchor="middle" x="112" y="-524.8" font-family="Times,serif" font-size="14.00" fill="#000000">var0</text>
</g>
<g id="clust3" class="cluster">
<title>clustervar_2_</title>
<polygon fill="none" stroke="#000000" points="141,-382 141,-457 219,-457 219,-382 141,-382"/>
<text text-anchor="middle" x="180" y="-441.8" font-family="Times,serif" font-size="14.00" fill="#000000">var1</text>
</g>
<g id="clust4" class="cluster">
<title>clusterusr_3_4_</title>
<polygon fill="none" stroke="#0000ff" points="8,-252 8,-366 173,-366 173,-252 8,-252"/>
<text text-anchor="middle" x="90.5" y="-350.8" font-family="Times,serif" font-size="14.00" fill="#000000">Tony</text>
</g>
<g id="clust5" class="cluster">
<title>clustervar_4_</title>
<polygon fill="none" stroke="#000000" points="87,-260 87,-335 165,-335 165,-260 87,-260"/>
<text text-anchor="middle" x="126" y="-319.8" font-family="Times,serif" font-size="14.00" fill="#000000">var2</text>
</g>
<g id="clust6" class="cluster">
<title>clusterusr_5_6_</title>
<polygon fill="none" stroke="#0000ff" points="79,-130 79,-244 244,-244 244,-130 79,-130"/>
<text text-anchor="middle" x="161.5" y="-228.8" font-family="Times,serif" font-size="14.00" fill="#000000">Peter</text>
</g>
<g id="clust7" class="cluster">
<title>clustervar_6_</title>
<polygon fill="none" stroke="#000000" points="87,-138 87,-213 165,-213 165,-138 87,-138"/>
<text text-anchor="middle" x="126" y="-197.8" font-family="Times,serif" font-size="14.00" fill="#000000">var3</text>
</g>
<g id="clust8" class="cluster">
<title>clusterusr_7_</title>
<polygon fill="none" stroke="#0000ff" points="116,-16 116,-91 194,-91 194,-16 116,-16"/>
<text text-anchor="middle" x="155" y="-75.8" font-family="Times,serif" font-size="14.00" fill="#000000">Wendy</text>
</g>
<g id="clust9" class="cluster">
<title>clusterusr_8_</title>
<polygon fill="none" stroke="#0000ff" points="10,-8 10,-122 108,-122 108,-8 10,-8"/>
<text text-anchor="middle" x="59" y="-106.8" font-family="Times,serif" font-size="14.00" fill="#000000">anonymous</text>
</g>
<g id="clust10" class="cluster">
<title>clustervar_8_</title>
<polygon fill="none" stroke="#000000" points="22,-16 22,-91 100,-91 100,-16 22,-16"/>
<text text-anchor="middle" x="61" y="-75.8" font-family="Times,serif" font-size="14.00" fill="#000000">var4</text>
</g>
<!-- val0 -->
<g id="node1" class="node">
<title>val0</title>
<ellipse fill="#d3d3d3" stroke="#000000" cx="191" cy="-491" rx="30.5947" ry="18"/>
<text text-anchor="middle" x="191" y="-487.3" font-family="Times,serif" font-size="14.00" fill="#000000">val0</text>
</g>
<!-- val2 -->
<g id="node3" class="node">
<title>val2</title>
<ellipse fill="#d3d3d3" stroke="#000000" cx="180" cy="-408" rx="30.5947" ry="18"/>
<text text-anchor="middle" x="180" y="-404.3" font-family="Times,serif" font-size="14.00" fill="#000000">val2</text>
</g>
<!-- val0&#45;&gt;val2 -->
<g id="edge2" class="edge">
<title>val0&#45;&gt;val2</title>
<path fill="none" stroke="#000000" d="M188.6132,-472.9902C187.1861,-462.2225 185.3422,-448.309 183.7267,-436.1199"/>
<polygon fill="#000000" stroke="#000000" points="187.1657,-435.4281 182.3822,-425.9746 180.2264,-436.3478 187.1657,-435.4281"/>
</g>
<!-- val1 -->
<g id="node2" class="node">
<title>val1</title>
<ellipse fill="#d3d3d3" stroke="#000000" cx="112" cy="-491" rx="30.5947" ry="18"/>
<text text-anchor="middle" x="112" y="-487.3" font-family="Times,serif" font-size="14.00" fill="#000000">val1</text>
</g>
<!-- val1&#45;&gt;val2 -->
<g id="edge1" class="edge">
<title>val1&#45;&gt;val2</title>
<path fill="none" stroke="#000000" d="M125.4346,-474.6019C135.307,-462.5518 148.8847,-445.9789 160.026,-432.38"/>
<polygon fill="#000000" stroke="#000000" points="162.9632,-434.3176 166.5933,-424.3641 157.5484,-429.8814 162.9632,-434.3176"/>
</g>
<!-- val3 -->
<g id="node4" class="node">
<title>val3</title>
<ellipse fill="#d3d3d3" stroke="#000000" cx="47" cy="-286" rx="30.5947" ry="18"/>
<text text-anchor="middle" x="47" y="-282.3" font-family="Times,serif" font-size="14.00" fill="#000000">val3</text>
</g>
<!-- val1&#45;&gt;val3 -->
<g id="edge3" class="edge">
<title>val1&#45;&gt;val3</title>
<path fill="none" stroke="#000000" d="M106.3454,-473.1662C94.9888,-437.3492 69.338,-356.4507 55.7801,-313.691"/>
<polygon fill="#000000" stroke="#000000" points="59.0466,-312.413 52.6878,-303.9385 52.374,-314.5287 59.0466,-312.413"/>
</g>
<!-- val4 -->
<g id="node5" class="node">
<title>val4</title>
<ellipse fill="#d3d3d3" stroke="#000000" cx="126" cy="-286" rx="30.5947" ry="18"/>
<text text-anchor="middle" x="126" y="-282.3" font-family="Times,serif" font-size="14.00" fill="#000000">val4</text>
</g>
<!-- val1&#45;&gt;val4 -->
<g id="edge4" class="edge">
<title>val1&#45;&gt;val4</title>
<path fill="none" stroke="#000000" d="M113.2424,-472.8076C115.6916,-436.9446 121.1579,-356.9015 124.0766,-314.1638"/>
<polygon fill="#000000" stroke="#000000" points="127.5708,-314.3669 124.7604,-304.1516 120.5871,-313.8899 127.5708,-314.3669"/>
</g>
<!-- val2&#45;&gt;val4 -->
<g id="edge5" class="edge">
<title>val2&#45;&gt;val4</title>
<path fill="none" stroke="#000000" d="M172.2631,-390.5204C163.2809,-370.2272 148.3638,-336.5257 137.9027,-312.8914"/>
<polygon fill="#000000" stroke="#000000" points="140.9706,-311.1749 133.7225,-303.4472 134.5696,-314.0081 140.9706,-311.1749"/>
</g>
<!-- val5 -->
<g id="node6" class="node">
<title>val5</title>
<ellipse fill="#d3d3d3" stroke="#000000" cx="205" cy="-164" rx="30.5947" ry="18"/>
<text text-anchor="middle" x="205" y="-160.3" font-family="Times,serif" font-size="14.00" fill="#000000">val5</text>
</g>
<!-- val2&#45;&gt;val5 -->
<g id="edge6" class="edge">
<title>val2&#45;&gt;val5</title>
<path fill="none" stroke="#000000" d="M181.8791,-389.6603C186.206,-347.4295 196.8984,-243.0716 202.0851,-192.4492"/>
<polygon fill="#000000" stroke="#000000" points="205.5957,-192.5243 203.1332,-182.2196 198.6321,-191.8108 205.5957,-192.5243"/>
</g>
<!-- val6 -->
<g id="node7" class="node">
<title>val6</title>
<ellipse fill="#d3d3d3" stroke="#000000" cx="126" cy="-164" rx="30.5947" ry="18"/>
<text text-anchor="middle" x="126" y="-160.3" font-family="Times,serif" font-size="14.00" fill="#000000">val6</text>
</g>
<!-- val4&#45;&gt;val6 -->
<g id="edge7" class="edge">
<title>val4&#45;&gt;val6</title>
<path fill="none" stroke="#000000" d="M126,-267.9985C126,-247.9958 126,-215.4427 126,-192.0831"/>
<polygon fill="#000000" stroke="#000000" points="129.5001,-192.0753 126,-182.0754 122.5001,-192.0754 129.5001,-192.0753"/>
</g>
<!-- val8 -->
<g id="node9" class="node">
<title>val8</title>
<ellipse fill="#d3d3d3" stroke="#000000" cx="61" cy="-42" rx="30.5947" ry="18"/>
<text text-anchor="middle" x="61" y="-38.3" font-family="Times,serif" font-size="14.00" fill="#000000">val8</text>
</g>
<!-- val4&#45;&gt;val8 -->
<g id="edge9" class="edge">
<title>val4&#45;&gt;val8</title>
<path fill="none" stroke="#000000" d="M110.0985,-270.587C97.9401,-258.7838 83.214,-244.4399 83,-244 55.302,-187.0717 55.6265,-110.6893 58.2962,-70.1053"/>
<polygon fill="#000000" stroke="#000000" points="61.7871,-70.3575 59.0498,-60.1224 54.8069,-69.8305 61.7871,-70.3575"/>
</g>
<!-- val7 -->
<g id="node8" class="node">
<title>val7</title>
<ellipse fill="#d3d3d3" stroke="#000000" cx="155" cy="-42" rx="30.5947" ry="18"/>
<text text-anchor="middle" x="155" y="-38.3" font-family="Times,serif" font-size="14.00" fill="#000000">val7</text>
</g>
<!-- val6&#45;&gt;val7 -->
<g id="edge8" class="edge">
<title>val6&#45;&gt;val7</title>
<path fill="none" stroke="#000000" d="M130.279,-145.9985C135.0338,-125.9958 142.7718,-93.4427 148.3245,-70.0831"/>
<polygon fill="#000000" stroke="#000000" points="151.7958,-70.6137 150.7034,-60.0754 144.9856,-68.9949 151.7958,-70.6137"/>
</g>
<!-- val6&#45;&gt;val8 -->
<g id="edge10" class="edge">
<title>val6&#45;&gt;val8</title>
<path fill="none" stroke="#000000" d="M116.8249,-146.7791C105.9503,-126.3683 87.7119,-92.1362 75.0542,-68.3787"/>
<polygon fill="#000000" stroke="#000000" points="78.13,-66.7081 70.3389,-59.5283 71.9521,-69.9996 78.13,-66.7081"/>
</g>
</g>
</svg>
