<?xml version="1.0" encoding="UTF-8" standalone="no"?>
<!DOCTYPE svg PUBLIC "-//W3C//DTD SVG 1.1//EN"
 "http://www.w3.org/Graphics/SVG/1.1/DTD/svg11.dtd">
<!-- Generated by graphviz version 2.44.1 (20200629.0846)
 -->
<!-- Title: G Pages: 1 -->
<svg width="238pt" height="587pt"
 viewBox="0.00 0.00 238.00 587.00" xmlns="http://www.w3.org/2000/svg" xmlns:xlink="http://www.w3.org/1999/xlink">
<g id="graph0" class="graph" transform="scale(1 1) rotate(0) translate(4 583)">
<title>G</title>
<polygon fill="white" stroke="transparent" points="-4,4 -4,-583 234,-583 234,4 -4,4"/>
<g id="clust1" class="cluster">
<title>clusterusr_0_1_2_</title>
<polygon fill="none" stroke="blue" points="60,-374 60,-571 210,-571 210,-374 60,-374"/>
<text text-anchor="middle" x="135" y="-555.8" font-family="Times,serif" font-size="14.00">Wendy</text>
</g>
<g id="clust2" class="cluster">
<title>clustervar_1_</title>
<polygon fill="none" stroke="black" points="68,-465 68,-540 138,-540 138,-465 68,-465"/>
<text text-anchor="middle" x="103" y="-524.8" font-family="Times,serif" font-size="14.00">var0</text>
</g>
<g id="clust3" class="cluster">
<title>clustervar_2_</title>
<polygon fill="none" stroke="black" points="130,-382 130,-457 200,-457 200,-382 130,-382"/>
<text text-anchor="middle" x="165" y="-441.8" font-family="Times,serif" font-size="14.00">var1</text>
</g>
<g id="clust4" class="cluster">
<title>clusterusr_3_4_</title>
<polygon fill="none" stroke="blue" points="8,-252 8,-366 158,-366 158,-252 8,-252"/>
<text text-anchor="middle" x="83" y="-350.8" font-family="Times,serif" font-size="14.00">Tony</text>
</g>
<g id="clust5" class="cluster">
<title>clustervar_4_</title>
<polygon fill="none" stroke="black" points="80,-260 80,-335 150,-335 150,-260 80,-260"/>
<text text-anchor="middle" x="115" y="-319.8" font-family="Times,serif" font-size="14.00">var2</text>
</g>
<g id="clust6" class="cluster">
<title>clusterusr_5_6_</title>
<polygon fill="none" stroke="blue" points="72,-130 72,-244 222,-244 222,-130 72,-130"/>
<text text-anchor="middle" x="147" y="-228.8" font-family="Times,serif" font-size="14.00">Peter</text>
</g>
<g id="clust7" class="cluster">
<title>clustervar_6_</title>
<polygon fill="none" stroke="black" points="80,-138 80,-213 150,-213 150,-138 80,-138"/>
<text text-anchor="middle" x="115" y="-197.8" font-family="Times,serif" font-size="14.00">var3</text>
</g>
<g id="clust8" class="cluster">
<title>clusterusr_7_</title>
<polygon fill="none" stroke="blue" points="105,-16 105,-91 175,-91 175,-16 105,-16"/>
<text text-anchor="middle" x="140" y="-75.8" font-family="Times,serif" font-size="14.00">Wendy</text>
</g>
<g id="clust9" class="cluster">
<title>clusterusr_8_</title>
<polygon fill="none" stroke="blue" points="11,-8 11,-122 97,-122 97,-8 11,-8"/>
<text text-anchor="middle" x="54" y="-106.8" font-family="Times,serif" font-size="14.00">anonymous</text>
</g>
<g id="clust10" class="cluster">
<title>clustervar_8_</title>
<polygon fill="none" stroke="black" points="19,-16 19,-91 89,-91 89,-16 19,-16"/>
<text text-anchor="middle" x="54" y="-75.8" font-family="Times,serif" font-size="14.00">var4</text>
</g>
<!-- val0 -->
<g id="node1" class="node">
<title>val0</title>
<ellipse fill="lightgrey" stroke="black" cx="175" cy="-491" rx="27" ry="18"/>
<text text-anchor="middle" x="175" y="-487.3" font-family="Times,serif" font-size="14.00">val0</text>
</g>
<!-- val2 -->
<g id="node3" class="node">
<title>val2</title>
<ellipse fill="lightgrey" stroke="black" cx="165" cy="-408" rx="27" ry="18"/>
<text text-anchor="middle" x="165" y="-404.3" font-family="Times,serif" font-size="14.00">val2</text>
</g>
<!-- val0&#45;&gt;val2 -->
<g id="edge2" class="edge">
<title>val0&#45;&gt;val2</title>
<path fill="none" stroke="black" d="M172.88,-472.82C171.57,-462.19 169.85,-448.31 168.36,-436.2"/>
<polygon fill="black" stroke="black" points="171.82,-435.65 167.12,-426.15 164.87,-436.51 171.82,-435.65"/>
</g>
<!-- val1 -->
<g id="node2" class="node">
<title>val1</title>
<ellipse fill="lightgrey" stroke="black" cx="103" cy="-491" rx="27" ry="18"/>
<text text-anchor="middle" x="103" y="-487.3" font-family="Times,serif" font-size="14.00">val1</text>
</g>
<!-- val1&#45;&gt;val2 -->
<g id="edge1" class="edge">
<title>val1&#45;&gt;val2</title>
<path fill="none" stroke="black" d="M114.66,-474.76C123.78,-462.85 136.62,-446.07 147.05,-432.45"/>
<polygon fill="black" stroke="black" points="149.88,-434.51 153.18,-424.44 144.32,-430.26 149.88,-434.51"/>
</g>
<!-- val3 -->
<g id="node4" class="node">
<title>val3</title>
<ellipse fill="lightgrey" stroke="black" cx="43" cy="-286" rx="27" ry="18"/>
<text text-anchor="middle" x="43" y="-282.3" font-family="Times,serif" font-size="14.00">val3</text>
</g>
<!-- val1&#45;&gt;val3 -->
<g id="edge3" class="edge">
<title>val1&#45;&gt;val3</title>
<path fill="none" stroke="black" d="M97.99,-473.04C87.53,-437.65 63.31,-355.72 50.8,-313.38"/>
<polygon fill="black" stroke="black" points="54.15,-312.37 47.96,-303.77 47.43,-314.35 54.15,-312.37"/>
</g>
<!-- val4 -->
<g id="node5" class="node">
<title>val4</title>
<ellipse fill="lightgrey" stroke="black" cx="115" cy="-286" rx="27" ry="18"/>
<text text-anchor="middle" x="115" y="-282.3" font-family="Times,serif" font-size="14.00">val4</text>
</g>
<!-- val1&#45;&gt;val4 -->
<g id="edge4" class="edge">
<title>val1&#45;&gt;val4</title>
<path fill="none" stroke="black" d="M104.02,-472.69C106.11,-437.41 110.87,-356.93 113.38,-314.44"/>
<polygon fill="black" stroke="black" points="116.88,-314.45 113.98,-304.26 109.9,-314.04 116.88,-314.45"/>
</g>
<!-- val2&#45;&gt;val4 -->
<g id="edge5" class="edge">
<title>val2&#45;&gt;val4</title>
<path fill="none" stroke="black" d="M158.05,-390.31C149.69,-370.25 135.57,-336.36 125.79,-312.89"/>
<polygon fill="black" stroke="black" points="128.97,-311.43 121.89,-303.54 122.51,-314.12 128.97,-311.43"/>
</g>
<!-- val5 -->
<g id="node6" class="node">
<title>val5</title>
<ellipse fill="lightgrey" stroke="black" cx="187" cy="-164" rx="27" ry="18"/>
<text text-anchor="middle" x="187" y="-160.3" font-family="Times,serif" font-size="14.00">val5</text>
</g>
<!-- val2&#45;&gt;val5 -->
<g id="edge6" class="edge">
<title>val2&#45;&gt;val5</title>
<path fill="none" stroke="black" d="M166.55,-389.98C170.31,-348.59 179.97,-242.35 184.54,-192.11"/>
<polygon fill="black" stroke="black" points="188.03,-192.27 185.45,-182 181.06,-191.64 188.03,-192.27"/>
</g>
<!-- val6 -->
<g id="node7" class="node">
<title>val6</title>
<ellipse fill="lightgrey" stroke="black" cx="115" cy="-164" rx="27" ry="18"/>
<text text-anchor="middle" x="115" y="-160.3" font-family="Times,serif" font-size="14.00">val6</text>
</g>
<!-- val4&#45;&gt;val6 -->
<g id="edge7" class="edge">
<title>val4&#45;&gt;val6</title>
<path fill="none" stroke="black" d="M115,-267.81C115,-248.11 115,-215.58 115,-192.39"/>
<polygon fill="black" stroke="black" points="118.5,-192.16 115,-182.16 111.5,-192.16 118.5,-192.16"/>
</g>
<!-- val8 -->
<g id="node9" class="node">
<title>val8</title>
<ellipse fill="lightgrey" stroke="black" cx="54" cy="-42" rx="27" ry="18"/>
<text text-anchor="middle" x="54" y="-38.3" font-family="Times,serif" font-size="14.00">val8</text>
</g>
<!-- val4&#45;&gt;val8 -->
<g id="edge9" class="edge">
<title>val4&#45;&gt;val8</title>
<path fill="none" stroke="black" d="M101.21,-270.12C95.87,-264.42 89.69,-257.87 84,-252 80.5,-248.39 78.17,-248.53 76,-244 48.61,-186.88 48.9,-110.42 51.46,-70.26"/>
<polygon fill="black" stroke="black" points="54.96,-70.4 52.2,-60.17 47.98,-69.89 54.96,-70.4"/>
</g>
<!-- val7 -->
<g id="node8" class="node">
<title>val7</title>
<ellipse fill="lightgrey" stroke="black" cx="140" cy="-42" rx="27" ry="18"/>
<text text-anchor="middle" x="140" y="-38.3" font-family="Times,serif" font-size="14.00">val7</text>
</g>
<!-- val6&#45;&gt;val7 -->
<g id="edge8" class="edge">
<title>val6&#45;&gt;val7</title>
<path fill="none" stroke="black" d="M118.53,-146.06C122.66,-126.23 129.56,-93.13 134.42,-69.8"/>
<polygon fill="black" stroke="black" points="137.88,-70.36 136.49,-59.85 131.02,-68.93 137.88,-70.36"/>
</g>
<!-- val6&#45;&gt;val8 -->
<g id="edge10" class="edge">
<title>val6&#45;&gt;val8</title>
<path fill="none" stroke="black" d="M106.77,-146.82C96.54,-126.69 78.95,-92.09 66.92,-68.41"/>
<polygon fill="black" stroke="black" points="69.94,-66.64 62.29,-59.31 63.7,-69.81 69.94,-66.64"/>
</g>
</g>
</svg>
