<?xml version="1.0" encoding="UTF-8" standalone="no"?>
<!DOCTYPE svg PUBLIC "-//W3C//DTD SVG 1.1//EN"
 "http://www.w3.org/Graphics/SVG/1.1/DTD/svg11.dtd">
<!-- Generated by graphviz version 2.40.1 (20161225.0304)
 -->
<!-- Title: G Pages: 1 -->
<svg width="354pt" height="382pt"
 viewBox="0.00 0.00 354.00 382.00" xmlns="http://www.w3.org/2000/svg" xmlns:xlink="http://www.w3.org/1999/xlink">
<g id="graph0" class="graph" transform="scale(1 1) rotate(0) translate(4 378)">
<title>G</title>
<polygon fill="#ffffff" stroke="transparent" points="-4,4 -4,-378 350,-378 350,4 -4,4"/>
<g id="clust1" class="cluster">
<title>clusterusr_0_4_</title>
<polygon fill="none" stroke="#0000ff" points="87,-252 87,-366 252,-366 252,-252 87,-252"/>
<text text-anchor="middle" x="169.5" y="-350.8" font-family="Times,serif" font-size="14.00" fill="#000000">covidtracking_user</text>
</g>
<g id="clust2" class="cluster">
<title>clustervar_4_</title>
<polygon fill="none" stroke="#000000" points="166,-260 166,-335 244,-335 244,-260 166,-260"/>
<text text-anchor="middle" x="205" y="-319.8" font-family="Times,serif" font-size="14.00" fill="#000000">var0</text>
</g>
<g id="clust3" class="cluster">
<title>clusterusr_1_5_</title>
<polygon fill="none" stroke="#0000ff" points="87,-130 87,-244 252,-244 252,-130 87,-130"/>
<text text-anchor="middle" x="169.5" y="-228.8" font-family="Times,serif" font-size="14.00" fill="#000000">Predictor</text>
</g>
<g id="clust4" class="cluster">
<title>clustervar_5_</title>
<polygon fill="none" stroke="#000000" points="166,-138 166,-213 244,-213 244,-138 166,-138"/>
<text text-anchor="middle" x="205" y="-197.8" font-family="Times,serif" font-size="14.00" fill="#000000">var1</text>
</g>
<g id="clust5" class="cluster">
<title>clusterusr_2_3_6_7_</title>
<polygon fill="none" stroke="#0000ff" points="8,-8 8,-122 338,-122 338,-8 8,-8"/>
<text text-anchor="middle" x="173" y="-106.8" font-family="Times,serif" font-size="14.00" fill="#000000">Drawer</text>
</g>
<g id="clust6" class="cluster">
<title>clustervar_6_</title>
<polygon fill="none" stroke="#000000" points="252,-16 252,-91 330,-91 330,-16 252,-16"/>
<text text-anchor="middle" x="291" y="-75.8" font-family="Times,serif" font-size="14.00" fill="#000000">var3</text>
</g>
<g id="clust7" class="cluster">
<title>clustervar_7_</title>
<polygon fill="none" stroke="#000000" points="166,-16 166,-91 244,-91 244,-16 166,-16"/>
<text text-anchor="middle" x="205" y="-75.8" font-family="Times,serif" font-size="14.00" fill="#000000">var2</text>
</g>
<!-- val0 -->
<g id="node1" class="node">
<title>val0</title>
<ellipse fill="#d3d3d3" stroke="#000000" cx="126" cy="-286" rx="30.5947" ry="18"/>
<text text-anchor="middle" x="126" y="-282.3" font-family="Times,serif" font-size="14.00" fill="#000000">val0</text>
</g>
<!-- val1 -->
<g id="node3" class="node">
<title>val1</title>
<ellipse fill="#d3d3d3" stroke="#000000" cx="126" cy="-164" rx="30.5947" ry="18"/>
<text text-anchor="middle" x="126" y="-160.3" font-family="Times,serif" font-size="14.00" fill="#000000">val1</text>
</g>
<!-- val0&#45;&gt;val1 -->
<g id="edge1" class="edge">
<title>val0&#45;&gt;val1</title>
<path fill="none" stroke="#000000" d="M126,-267.9985C126,-247.9958 126,-215.4427 126,-192.0831"/>
<polygon fill="#000000" stroke="#000000" points="129.5001,-192.0753 126,-182.0754 122.5001,-192.0754 129.5001,-192.0753"/>
</g>
<!-- val4 -->
<g id="node2" class="node">
<title>val4</title>
<ellipse fill="#d3d3d3" stroke="#000000" cx="205" cy="-286" rx="30.5947" ry="18"/>
<text text-anchor="middle" x="205" y="-282.3" font-family="Times,serif" font-size="14.00" fill="#000000">val4</text>
</g>
<!-- val5 -->
<g id="node4" class="node">
<title>val5</title>
<ellipse fill="#d3d3d3" stroke="#000000" cx="205" cy="-164" rx="30.5947" ry="18"/>
<text text-anchor="middle" x="205" y="-160.3" font-family="Times,serif" font-size="14.00" fill="#000000">val5</text>
</g>
<!-- val4&#45;&gt;val5 -->
<g id="edge4" class="edge">
<title>val4&#45;&gt;val5</title>
<path fill="none" stroke="#000000" d="M205,-267.9985C205,-247.9958 205,-215.4427 205,-192.0831"/>
<polygon fill="#000000" stroke="#000000" points="208.5001,-192.0753 205,-182.0754 201.5001,-192.0754 208.5001,-192.0753"/>
</g>
<!-- val2 -->
<g id="node5" class="node">
<title>val2</title>
<ellipse fill="#d3d3d3" stroke="#000000" cx="126" cy="-42" rx="30.5947" ry="18"/>
<text text-anchor="middle" x="126" y="-38.3" font-family="Times,serif" font-size="14.00" fill="#000000">val2</text>
</g>
<!-- val1&#45;&gt;val2 -->
<g id="edge2" class="edge">
<title>val1&#45;&gt;val2</title>
<path fill="none" stroke="#000000" d="M126,-145.9985C126,-125.9958 126,-93.4427 126,-70.0831"/>
<polygon fill="#000000" stroke="#000000" points="129.5001,-70.0753 126,-60.0754 122.5001,-70.0754 129.5001,-70.0753"/>
</g>
<!-- val3 -->
<g id="node6" class="node">
<title>val3</title>
<ellipse fill="#d3d3d3" stroke="#000000" cx="47" cy="-42" rx="30.5947" ry="18"/>
<text text-anchor="middle" x="47" y="-38.3" font-family="Times,serif" font-size="14.00" fill="#000000">val3</text>
</g>
<!-- val1&#45;&gt;val3 -->
<g id="edge3" class="edge">
<title>val1&#45;&gt;val3</title>
<path fill="none" stroke="#000000" d="M109.1762,-148.6616C101.5034,-141.1147 92.6656,-131.5919 86,-122 74.536,-105.503 64.657,-85.1279 57.7101,-69.0691"/>
<polygon fill="#000000" stroke="#000000" points="60.8749,-67.5657 53.7755,-59.7012 54.421,-70.2764 60.8749,-67.5657"/>
</g>
<!-- val6 -->
<g id="node7" class="node">
<title>val6</title>
<ellipse fill="#d3d3d3" stroke="#000000" cx="291" cy="-42" rx="30.5947" ry="18"/>
<text text-anchor="middle" x="291" y="-38.3" font-family="Times,serif" font-size="14.00" fill="#000000">val6</text>
</g>
<!-- val5&#45;&gt;val6 -->
<g id="edge5" class="edge">
<title>val5&#45;&gt;val6</title>
<path fill="none" stroke="#000000" d="M222.5591,-149.1211C230.8808,-141.5308 240.5952,-131.8387 248,-122 260.3281,-105.6199 271.2252,-85.243 278.9649,-69.154"/>
<polygon fill="#000000" stroke="#000000" points="282.2905,-70.3052 283.3606,-59.7646 275.9508,-67.3373 282.2905,-70.3052"/>
</g>
<!-- val7 -->
<g id="node8" class="node">
<title>val7</title>
<ellipse fill="#d3d3d3" stroke="#000000" cx="205" cy="-42" rx="30.5947" ry="18"/>
<text text-anchor="middle" x="205" y="-38.3" font-family="Times,serif" font-size="14.00" fill="#000000">val7</text>
</g>
<!-- val5&#45;&gt;val7 -->
<g id="edge6" class="edge">
<title>val5&#45;&gt;val7</title>
<path fill="none" stroke="#000000" d="M205,-145.9985C205,-125.9958 205,-93.4427 205,-70.0831"/>
<polygon fill="#000000" stroke="#000000" points="208.5001,-70.0753 205,-60.0754 201.5001,-70.0754 208.5001,-70.0753"/>
</g>
</g>
</svg>
