<?xml version="1.0" encoding="UTF-8" standalone="no"?>
<!DOCTYPE svg PUBLIC "-//W3C//DTD SVG 1.1//EN"
 "http://www.w3.org/Graphics/SVG/1.1/DTD/svg11.dtd">
<!-- Generated by graphviz version 2.40.1 (20161225.0304)
 -->
<!-- Title: G Pages: 1 -->
<svg width="383pt" height="265pt"
 viewBox="0.00 0.00 383.00 265.00" xmlns="http://www.w3.org/2000/svg" xmlns:xlink="http://www.w3.org/1999/xlink">
<g id="graph0" class="graph" transform="scale(1 1) rotate(0) translate(4 261)">
<title>G</title>
<polygon fill="#ffffff" stroke="transparent" points="-4,4 -4,-261 379,-261 379,4 -4,4"/>
<g id="clust1" class="cluster">
<title>clusterusr_0_4_</title>
<polygon fill="none" stroke="#0000ff" points="87,-174 87,-249 244,-249 244,-174 87,-174"/>
<text text-anchor="middle" x="165.5" y="-233.8" font-family="Times,serif" font-size="14.00" fill="#000000">covidtracking_user</text>
</g>
<g id="clust2" class="cluster">
<title>clusterusr_1_5_</title>
<polygon fill="none" stroke="#0000ff" points="87,-91 87,-166 244,-166 244,-91 87,-91"/>
<text text-anchor="middle" x="165.5" y="-150.8" font-family="Times,serif" font-size="14.00" fill="#000000">Predictor</text>
</g>
<g id="clust3" class="cluster">
<title>clusterusr_2_3_6_7_</title>
<polygon fill="none" stroke="#0000ff" points="8,-8 8,-83 323,-83 323,-8 8,-8"/>
<text text-anchor="middle" x="165.5" y="-67.8" font-family="Times,serif" font-size="14.00" fill="#000000">Drawer</text>
</g>
<g id="clust4" class="cluster">
<title>clusterusr_8_9_</title>
<polygon fill="none" stroke="#0000ff" points="252,-91 252,-249 367,-249 367,-91 252,-91"/>
<text text-anchor="middle" x="309.5" y="-233.8" font-family="Times,serif" font-size="14.00" fill="#000000">Relation_user</text>
</g>
<!-- val0 -->
<g id="node1" class="node">
<title>val0</title>
<ellipse fill="#d3d3d3" stroke="#000000" cx="205" cy="-200" rx="30.5947" ry="18"/>
<text text-anchor="middle" x="205" y="-196.3" font-family="Times,serif" font-size="14.00" fill="#000000">val0</text>
</g>
<!-- val1 -->
<g id="node3" class="node">
<title>val1</title>
<ellipse fill="#d3d3d3" stroke="#000000" cx="205" cy="-117" rx="30.5947" ry="18"/>
<text text-anchor="middle" x="205" y="-113.3" font-family="Times,serif" font-size="14.00" fill="#000000">val1</text>
</g>
<!-- val0&#45;&gt;val1 -->
<g id="edge1" class="edge">
<title>val0&#45;&gt;val1</title>
<path fill="none" stroke="#000000" d="M205,-181.9902C205,-171.2963 205,-157.4994 205,-145.3706"/>
<polygon fill="#000000" stroke="#000000" points="208.5001,-145.2612 205,-135.2612 201.5001,-145.2613 208.5001,-145.2612"/>
</g>
<!-- val4 -->
<g id="node2" class="node">
<title>val4</title>
<ellipse fill="#d3d3d3" stroke="#000000" cx="126" cy="-200" rx="30.5947" ry="18"/>
<text text-anchor="middle" x="126" y="-196.3" font-family="Times,serif" font-size="14.00" fill="#000000">val4</text>
</g>
<!-- val5 -->
<g id="node4" class="node">
<title>val5</title>
<ellipse fill="#d3d3d3" stroke="#000000" cx="126" cy="-117" rx="30.5947" ry="18"/>
<text text-anchor="middle" x="126" y="-113.3" font-family="Times,serif" font-size="14.00" fill="#000000">val5</text>
</g>
<!-- val4&#45;&gt;val5 -->
<g id="edge4" class="edge">
<title>val4&#45;&gt;val5</title>
<path fill="none" stroke="#000000" d="M126,-181.9902C126,-171.2963 126,-157.4994 126,-145.3706"/>
<polygon fill="#000000" stroke="#000000" points="129.5001,-145.2612 126,-135.2612 122.5001,-145.2613 129.5001,-145.2612"/>
</g>
<!-- val2 -->
<g id="node5" class="node">
<title>val2</title>
<ellipse fill="#d3d3d3" stroke="#000000" cx="284" cy="-34" rx="30.5947" ry="18"/>
<text text-anchor="middle" x="284" y="-30.3" font-family="Times,serif" font-size="14.00" fill="#000000">val2</text>
</g>
<!-- val1&#45;&gt;val2 -->
<g id="edge2" class="edge">
<title>val1&#45;&gt;val2</title>
<path fill="none" stroke="#000000" d="M223.5856,-102.4768C230.5686,-96.6978 238.4065,-89.8097 245,-83 252.1849,-75.5795 259.408,-66.9186 265.6515,-58.9598"/>
<polygon fill="#000000" stroke="#000000" points="268.4478,-61.065 271.7606,-51.0014 262.8951,-56.8026 268.4478,-61.065"/>
</g>
<!-- val3 -->
<g id="node6" class="node">
<title>val3</title>
<ellipse fill="#d3d3d3" stroke="#000000" cx="205" cy="-34" rx="30.5947" ry="18"/>
<text text-anchor="middle" x="205" y="-30.3" font-family="Times,serif" font-size="14.00" fill="#000000">val3</text>
</g>
<!-- val1&#45;&gt;val3 -->
<g id="edge3" class="edge">
<title>val1&#45;&gt;val3</title>
<path fill="none" stroke="#000000" d="M205,-98.9902C205,-88.2963 205,-74.4994 205,-62.3706"/>
<polygon fill="#000000" stroke="#000000" points="208.5001,-62.2612 205,-52.2612 201.5001,-62.2613 208.5001,-62.2612"/>
</g>
<!-- val6 -->
<g id="node7" class="node">
<title>val6</title>
<ellipse fill="#d3d3d3" stroke="#000000" cx="126" cy="-34" rx="30.5947" ry="18"/>
<text text-anchor="middle" x="126" y="-30.3" font-family="Times,serif" font-size="14.00" fill="#000000">val6</text>
</g>
<!-- val5&#45;&gt;val6 -->
<g id="edge5" class="edge">
<title>val5&#45;&gt;val6</title>
<path fill="none" stroke="#000000" d="M126,-98.9902C126,-88.2963 126,-74.4994 126,-62.3706"/>
<polygon fill="#000000" stroke="#000000" points="129.5001,-62.2612 126,-52.2612 122.5001,-62.2613 129.5001,-62.2612"/>
</g>
<!-- val7 -->
<g id="node8" class="node">
<title>val7</title>
<ellipse fill="#d3d3d3" stroke="#000000" cx="47" cy="-34" rx="30.5947" ry="18"/>
<text text-anchor="middle" x="47" y="-30.3" font-family="Times,serif" font-size="14.00" fill="#000000">val7</text>
</g>
<!-- val5&#45;&gt;val7 -->
<g id="edge6" class="edge">
<title>val5&#45;&gt;val7</title>
<path fill="none" stroke="#000000" d="M107.4144,-102.4768C100.4314,-96.6978 92.5935,-89.8097 86,-83 78.8151,-75.5795 71.592,-66.9186 65.3485,-58.9598"/>
<polygon fill="#000000" stroke="#000000" points="68.1049,-56.8026 59.2394,-51.0014 62.5522,-61.065 68.1049,-56.8026"/>
</g>
<!-- val8 -->
<g id="node9" class="node">
<title>val8</title>
<ellipse fill="#d3d3d3" stroke="#000000" cx="309" cy="-200" rx="30.5947" ry="18"/>
<text text-anchor="middle" x="309" y="-196.3" font-family="Times,serif" font-size="14.00" fill="#000000">val8</text>
</g>
<!-- val9 -->
<g id="node10" class="node">
<title>val9</title>
<ellipse fill="#d3d3d3" stroke="#000000" cx="309" cy="-117" rx="30.5947" ry="18"/>
<text text-anchor="middle" x="309" y="-113.3" font-family="Times,serif" font-size="14.00" fill="#000000">val9</text>
</g>
<!-- val8&#45;&gt;val9 -->
<g id="edge7" class="edge">
<title>val8&#45;&gt;val9</title>
<path fill="none" stroke="#000000" d="M309,-181.9902C309,-171.2963 309,-157.4994 309,-145.3706"/>
<polygon fill="#000000" stroke="#000000" points="312.5001,-145.2612 309,-135.2612 305.5001,-145.2613 312.5001,-145.2612"/>
</g>
</g>
</svg>
